<mxfile host="app.diagrams.net" modified="2023-06-20T20:38:35.741Z" agent="Mozilla/5.0 (Windows NT 10.0; Win64; x64; rv:109.0) Gecko/20100101 Firefox/114.0" etag="yc-T9enWx9JCPDtslsoT" version="21.5.0" type="device">
  <diagram id="R2lEEEUBdFMjLlhIrx00" name="Page-1">
    <mxGraphModel dx="4310" dy="2526" grid="1" gridSize="10" guides="1" tooltips="1" connect="1" arrows="1" fold="1" page="1" pageScale="1" pageWidth="1920" pageHeight="1200" math="0" shadow="0" extFonts="Permanent Marker^https://fonts.googleapis.com/css?family=Permanent+Marker">
      <root>
        <mxCell id="0" />
        <mxCell id="1" parent="0" />
        <mxCell id="9g92GqVXuXeMbjD48NMj-21" value="&lt;div&gt;&lt;br&gt;&lt;/div&gt;&lt;div style=&quot;font-size: 18px;&quot;&gt;&lt;b&gt;&lt;i&gt;&lt;span style=&quot;&quot;&gt;&lt;/span&gt;&lt;span style=&quot;&quot;&gt;&lt;/span&gt;&amp;nbsp;&amp;nbsp; Rookio-light&lt;/i&gt;&lt;/b&gt;&lt;/div&gt;&lt;div&gt;&lt;br&gt;&lt;/div&gt;&lt;div&gt;&lt;br&gt;&lt;/div&gt;&lt;div&gt;&lt;span style=&quot;&quot;&gt;&lt;span style=&quot;&quot;&gt;&amp;nbsp;&amp;nbsp;&amp;nbsp;&amp;nbsp;&lt;/span&gt;&lt;/span&gt;&lt;font color=&quot;#ff3333&quot;&gt;otázky:&lt;/font&gt;&lt;/div&gt;&lt;div&gt;&lt;ul&gt;&lt;li&gt;&lt;font color=&quot;#00cc00&quot;&gt;&amp;nbsp;roomka bude mat viacero ownerov s roznymi pravomocami - zaviest tieto permission do tabulky alebo vytvorit funkcionalitu uz v kode na skupiny s roznymi pravami?&lt;/font&gt;&lt;/li&gt;&lt;ul&gt;&lt;li&gt;&lt;font color=&quot;#00cc00&quot;&gt;permission do tabulky&lt;br&gt;&lt;/font&gt;&lt;/li&gt;&lt;/ul&gt;&lt;li&gt;&lt;font color=&quot;#00cc00&quot;&gt;v menuItems.duration - je vhodne pouzit DurationField ?&lt;/font&gt;&lt;/li&gt;&lt;ul&gt;&lt;li&gt;&lt;font color=&quot;#00cc00&quot;&gt;eventualne nekompatibilne so SQLite - pouzit radse PositiveSmallInteger v jednotkach minut&lt;/font&gt;&lt;/li&gt;&lt;/ul&gt;&lt;li&gt;&lt;font color=&quot;#ff0505&quot;&gt;´Pre pracu z obrazkami(galeria), vhodnejsie pouzit ImageField alebo FileField? K comu je Pillow library pri pouziti ImageFieldu?&lt;br&gt;&lt;/font&gt;&lt;/li&gt;&lt;/ul&gt;&lt;/div&gt;&lt;div&gt;&lt;br&gt;&lt;/div&gt;&lt;div&gt;&lt;br&gt;&lt;/div&gt;&lt;div&gt;&lt;span style=&quot;&quot;&gt;&lt;span style=&quot;&quot;&gt;&amp;nbsp;&amp;nbsp;&amp;nbsp;&amp;nbsp;&lt;/span&gt;&lt;/span&gt;&lt;b&gt;Obsah&lt;/b&gt;&lt;/div&gt;&lt;div&gt;&lt;b&gt;&lt;span style=&quot;&quot;&gt;&lt;span style=&quot;&quot;&gt;&amp;nbsp;&amp;nbsp;&amp;nbsp;&amp;nbsp;&lt;/span&gt;&lt;/span&gt;&lt;br&gt;&lt;/b&gt;&lt;/div&gt;&lt;div&gt;&lt;ul&gt;&lt;li&gt;Uvodna obrazovka&lt;/li&gt;&lt;ul&gt;&lt;li&gt;login / registracia&lt;br&gt;&lt;/li&gt;&lt;li&gt;vseobecne ponuky sluzieb (prednostne zobrazene - plateny uniqueness)&lt;/li&gt;&lt;/ul&gt;&lt;/ul&gt;&lt;div&gt;&lt;br&gt;&lt;/div&gt;&lt;ul&gt;&lt;li&gt;owner &amp;gt; Vytvorenie miesnosti so sluzbou(restauracia, servis, koncert, ...)&lt;/li&gt;&lt;ul&gt;&lt;li&gt;nazov sluzby/udalosti&lt;/li&gt;&lt;li&gt;typ roomky&lt;/li&gt;&lt;ul&gt;&lt;li&gt;sluzba&lt;/li&gt;&lt;li&gt;udalost&lt;/li&gt;&lt;li&gt;...&lt;br&gt;&lt;/li&gt;&lt;/ul&gt;&lt;li&gt;tag sluzby&lt;/li&gt;&lt;ul&gt;&lt;li&gt;restauracia&lt;/li&gt;&lt;li&gt;autoservis&lt;/li&gt;&lt;li&gt;barber&lt;/li&gt;&lt;li&gt;koncert&lt;/li&gt;&lt;li&gt;trening&lt;/li&gt;&lt;li&gt;teambuilding&lt;/li&gt;&lt;li&gt;...&lt;br&gt;&lt;/li&gt;&lt;/ul&gt;&lt;li&gt;miesto(stat, mesto, budova, ulica, ...)&lt;/li&gt;&lt;li&gt;poloha (GPS)&lt;/li&gt;&lt;li&gt;datum konania&lt;/li&gt;&lt;li&gt;trvanie sluzby/udalosti&lt;/li&gt;&lt;li&gt;indoor/outdoor&lt;/li&gt;&lt;li&gt;kontakt - vseobecne informacie pred prihlasenim sa do sluzby&lt;br&gt;&lt;/li&gt;&lt;li&gt;kontakt - zobrazeny po prihlaseni sa do sluzby&lt;/li&gt;&lt;li&gt;vekove obmedzenie&lt;/li&gt;&lt;li&gt;vekove odporucanie&lt;/li&gt;&lt;li&gt;min pocet ucastnikov&lt;/li&gt;&lt;li&gt;max pocet ucastnikov&lt;/li&gt;&lt;li&gt;podsluzba/element&lt;br&gt;&lt;/li&gt;&lt;ul&gt;&lt;li&gt;cena&lt;/li&gt;&lt;li&gt;trvanie / odhadovany cas kompletizacie - min/hod/den/...&lt;br&gt;&lt;/li&gt;&lt;/ul&gt;&lt;/ul&gt;&lt;/ul&gt;&lt;div&gt;&lt;br&gt;&lt;/div&gt;&lt;ul&gt;&lt;li&gt;&lt;span style=&quot;&quot;&gt;&lt;span style=&quot;&quot;&gt;Miestnosti&lt;/span&gt;&lt;/span&gt;&lt;span style=&quot;&quot;&gt; so sluzbami a ich zobrazenie&lt;/span&gt;&lt;/li&gt;&lt;ul&gt;&lt;li&gt;rozdelenie na typ sluzieb&lt;/li&gt;&lt;li&gt;&lt;span style=&quot;&quot;&gt;owner &amp;gt; prehlad miestnosti ktore vlastní&lt;/span&gt;&lt;/li&gt;&lt;li&gt;&lt;span style=&quot;&quot;&gt;customer &amp;gt; prehlad miestnosti kde je prihlaseny&lt;/span&gt;&lt;/li&gt;&lt;li&gt;customer &amp;gt; vyhladavanie sluzieb/udalosti (prednostne zobrazene - plateny uniqueness)&lt;/li&gt;&lt;ul&gt;&lt;li&gt;&lt;span style=&quot;&quot;&gt;podla typu&lt;/span&gt;&lt;/li&gt;&lt;li&gt;&lt;span style=&quot;&quot;&gt;podla nazvu sluzby/udalosti&lt;br&gt;&lt;/span&gt;&lt;/li&gt;&lt;li&gt;&lt;span style=&quot;&quot;&gt;podla miesta konania&lt;/span&gt;&lt;/li&gt;&lt;li&gt;&lt;span style=&quot;&quot;&gt;podla datumu konania - interval/presny den&lt;br&gt;&lt;/span&gt;&lt;/li&gt;&lt;li&gt;&lt;span style=&quot;&quot;&gt;vyhladat iba volne sluzby/udalosti&lt;/span&gt;&lt;/li&gt;&lt;/ul&gt;&lt;/ul&gt;&lt;/ul&gt;&lt;div&gt;&lt;br&gt;&lt;/div&gt;&lt;ul&gt;&lt;li&gt;&lt;span style=&quot;&quot;&gt;customer &amp;gt; Obrazovka(v sluzbe/udalosti) na prihlasenie &lt;br&gt;&lt;/span&gt;&lt;/li&gt;&lt;ul&gt;&lt;li&gt;&lt;span style=&quot;&quot;&gt;zobrazenie volnych terminov pre vybranu sluzbu/event&lt;/span&gt;&lt;/li&gt;&lt;ul&gt;&lt;li&gt;&lt;span style=&quot;&quot;&gt;zobrazenie dostupnych miest/casov&lt;br&gt;&lt;/span&gt;&lt;/li&gt;&lt;/ul&gt;&lt;li&gt;&lt;span style=&quot;&quot;&gt;zadanie zlavoveho kuponu&lt;/span&gt;&lt;/li&gt;&lt;li&gt;&lt;span style=&quot;&quot;&gt;&lt;br&gt;&lt;/span&gt;&lt;/li&gt;&lt;/ul&gt;&lt;/ul&gt;&lt;/div&gt;&lt;div&gt;&lt;span style=&quot;&quot;&gt;&lt;br&gt;&lt;/span&gt;&lt;/div&gt;&lt;div&gt;&lt;br&gt;&lt;/div&gt;&lt;div&gt;&lt;br&gt;&lt;/div&gt;&lt;div&gt;&lt;span style=&quot;&quot;&gt;&lt;span style=&quot;&quot;&gt;&amp;nbsp;&amp;nbsp;&amp;nbsp;&amp;nbsp;&lt;/span&gt;&lt;/span&gt;&lt;b&gt;Funkcionality&lt;/b&gt;&lt;/div&gt;&lt;div&gt;&lt;ul&gt;&lt;li&gt;oznam o bliziacej sa udalosti&lt;/li&gt;&lt;ul&gt;&lt;li&gt;email notifikacia&lt;/li&gt;&lt;li&gt;pop-up okno po prihlaseni(ak cas do zaciatku udalosti je menej ako tyzden/den/hodina/...)&lt;br&gt;&lt;/li&gt;&lt;/ul&gt;&lt;li&gt;&lt;span style=&quot;&quot;&gt;kalendar ?&lt;/span&gt;&lt;/li&gt;&lt;li&gt;&lt;span style=&quot;&quot;&gt;templaty pre udalosti/sluzby&lt;br&gt;&lt;/span&gt;&lt;/li&gt;&lt;/ul&gt;&lt;/div&gt;&lt;div&gt;&lt;span style=&quot;&quot;&gt;&lt;span style=&quot;&quot;&gt;&amp;nbsp;&amp;nbsp;&amp;nbsp;&amp;nbsp;&lt;/span&gt;&lt;/span&gt;&lt;br&gt;&lt;/div&gt;" style="text;html=1;align=left;verticalAlign=top;whiteSpace=wrap;rounded=0;fillColor=default;" parent="1" vertex="1">
          <mxGeometry x="-1820" y="-210" width="2230" height="1570" as="geometry" />
        </mxCell>
        <mxCell id="FrsXDeaIF_2unot50Wv9-1" value="room" style="shape=table;startSize=30;container=1;collapsible=1;childLayout=tableLayout;fixedRows=1;rowLines=0;fontStyle=1;align=center;resizeLast=1;html=1;whiteSpace=wrap;" vertex="1" parent="1">
          <mxGeometry x="-970" y="290" width="370" height="690" as="geometry" />
        </mxCell>
        <mxCell id="FrsXDeaIF_2unot50Wv9-5" value="" style="shape=tableRow;horizontal=0;startSize=0;swimlaneHead=0;swimlaneBody=0;fillColor=none;collapsible=0;dropTarget=0;points=[[0,0.5],[1,0.5]];portConstraint=eastwest;top=0;left=0;right=0;bottom=1;html=1;" vertex="1" parent="FrsXDeaIF_2unot50Wv9-1">
          <mxGeometry y="30" width="370" height="30" as="geometry" />
        </mxCell>
        <mxCell id="FrsXDeaIF_2unot50Wv9-6" value="&lt;div&gt;PK&lt;/div&gt;" style="shape=partialRectangle;connectable=0;fillColor=none;top=0;left=0;bottom=0;right=0;fontStyle=1;overflow=hidden;html=1;whiteSpace=wrap;" vertex="1" parent="FrsXDeaIF_2unot50Wv9-5">
          <mxGeometry width="210" height="30" as="geometry">
            <mxRectangle width="210" height="30" as="alternateBounds" />
          </mxGeometry>
        </mxCell>
        <mxCell id="FrsXDeaIF_2unot50Wv9-7" value="id" style="shape=partialRectangle;connectable=0;fillColor=none;top=0;left=0;bottom=0;right=0;align=left;spacingLeft=6;fontStyle=5;overflow=hidden;html=1;whiteSpace=wrap;" vertex="1" parent="FrsXDeaIF_2unot50Wv9-5">
          <mxGeometry x="210" width="160" height="30" as="geometry">
            <mxRectangle width="160" height="30" as="alternateBounds" />
          </mxGeometry>
        </mxCell>
        <mxCell id="FrsXDeaIF_2unot50Wv9-8" value="" style="shape=tableRow;horizontal=0;startSize=0;swimlaneHead=0;swimlaneBody=0;fillColor=none;collapsible=0;dropTarget=0;points=[[0,0.5],[1,0.5]];portConstraint=eastwest;top=0;left=0;right=0;bottom=0;html=1;" vertex="1" parent="FrsXDeaIF_2unot50Wv9-1">
          <mxGeometry y="60" width="370" height="30" as="geometry" />
        </mxCell>
        <mxCell id="FrsXDeaIF_2unot50Wv9-9" value="CharField" style="shape=partialRectangle;connectable=0;fillColor=none;top=0;left=0;bottom=0;right=0;editable=1;overflow=hidden;html=1;whiteSpace=wrap;" vertex="1" parent="FrsXDeaIF_2unot50Wv9-8">
          <mxGeometry width="210" height="30" as="geometry">
            <mxRectangle width="210" height="30" as="alternateBounds" />
          </mxGeometry>
        </mxCell>
        <mxCell id="FrsXDeaIF_2unot50Wv9-10" value="name" style="shape=partialRectangle;connectable=0;fillColor=none;top=0;left=0;bottom=0;right=0;align=left;spacingLeft=6;overflow=hidden;html=1;whiteSpace=wrap;" vertex="1" parent="FrsXDeaIF_2unot50Wv9-8">
          <mxGeometry x="210" width="160" height="30" as="geometry">
            <mxRectangle width="160" height="30" as="alternateBounds" />
          </mxGeometry>
        </mxCell>
        <mxCell id="FrsXDeaIF_2unot50Wv9-122" style="shape=tableRow;horizontal=0;startSize=0;swimlaneHead=0;swimlaneBody=0;fillColor=none;collapsible=0;dropTarget=0;points=[[0,0.5],[1,0.5]];portConstraint=eastwest;top=0;left=0;right=0;bottom=0;html=1;" vertex="1" parent="FrsXDeaIF_2unot50Wv9-1">
          <mxGeometry y="90" width="370" height="30" as="geometry" />
        </mxCell>
        <mxCell id="FrsXDeaIF_2unot50Wv9-123" value="FK, IntegerField" style="shape=partialRectangle;connectable=0;fillColor=none;top=0;left=0;bottom=0;right=0;editable=1;overflow=hidden;html=1;whiteSpace=wrap;" vertex="1" parent="FrsXDeaIF_2unot50Wv9-122">
          <mxGeometry width="210" height="30" as="geometry">
            <mxRectangle width="210" height="30" as="alternateBounds" />
          </mxGeometry>
        </mxCell>
        <mxCell id="FrsXDeaIF_2unot50Wv9-124" value="ownerRoomAssignId" style="shape=partialRectangle;connectable=0;fillColor=none;top=0;left=0;bottom=0;right=0;align=left;spacingLeft=6;overflow=hidden;html=1;whiteSpace=wrap;" vertex="1" parent="FrsXDeaIF_2unot50Wv9-122">
          <mxGeometry x="210" width="160" height="30" as="geometry">
            <mxRectangle width="160" height="30" as="alternateBounds" />
          </mxGeometry>
        </mxCell>
        <mxCell id="FrsXDeaIF_2unot50Wv9-125" style="shape=tableRow;horizontal=0;startSize=0;swimlaneHead=0;swimlaneBody=0;fillColor=none;collapsible=0;dropTarget=0;points=[[0,0.5],[1,0.5]];portConstraint=eastwest;top=0;left=0;right=0;bottom=0;html=1;" vertex="1" parent="FrsXDeaIF_2unot50Wv9-1">
          <mxGeometry y="120" width="370" height="30" as="geometry" />
        </mxCell>
        <mxCell id="FrsXDeaIF_2unot50Wv9-126" value="FK, IntegerField" style="shape=partialRectangle;connectable=0;fillColor=none;top=0;left=0;bottom=0;right=0;editable=1;overflow=hidden;html=1;whiteSpace=wrap;" vertex="1" parent="FrsXDeaIF_2unot50Wv9-125">
          <mxGeometry width="210" height="30" as="geometry">
            <mxRectangle width="210" height="30" as="alternateBounds" />
          </mxGeometry>
        </mxCell>
        <mxCell id="FrsXDeaIF_2unot50Wv9-127" value="participantRoomAssign" style="shape=partialRectangle;connectable=0;fillColor=none;top=0;left=0;bottom=0;right=0;align=left;spacingLeft=6;overflow=hidden;html=1;whiteSpace=wrap;" vertex="1" parent="FrsXDeaIF_2unot50Wv9-125">
          <mxGeometry x="210" width="160" height="30" as="geometry">
            <mxRectangle width="160" height="30" as="alternateBounds" />
          </mxGeometry>
        </mxCell>
        <mxCell id="FrsXDeaIF_2unot50Wv9-111" style="shape=tableRow;horizontal=0;startSize=0;swimlaneHead=0;swimlaneBody=0;fillColor=none;collapsible=0;dropTarget=0;points=[[0,0.5],[1,0.5]];portConstraint=eastwest;top=0;left=0;right=0;bottom=0;html=1;" vertex="1" parent="FrsXDeaIF_2unot50Wv9-1">
          <mxGeometry y="150" width="370" height="30" as="geometry" />
        </mxCell>
        <mxCell id="FrsXDeaIF_2unot50Wv9-112" value="ChoiceField" style="shape=partialRectangle;connectable=0;fillColor=none;top=0;left=0;bottom=0;right=0;editable=1;overflow=hidden;html=1;whiteSpace=wrap;" vertex="1" parent="FrsXDeaIF_2unot50Wv9-111">
          <mxGeometry width="210" height="30" as="geometry">
            <mxRectangle width="210" height="30" as="alternateBounds" />
          </mxGeometry>
        </mxCell>
        <mxCell id="FrsXDeaIF_2unot50Wv9-113" value="roomType" style="shape=partialRectangle;connectable=0;fillColor=none;top=0;left=0;bottom=0;right=0;align=left;spacingLeft=6;overflow=hidden;html=1;whiteSpace=wrap;" vertex="1" parent="FrsXDeaIF_2unot50Wv9-111">
          <mxGeometry x="210" width="160" height="30" as="geometry">
            <mxRectangle width="160" height="30" as="alternateBounds" />
          </mxGeometry>
        </mxCell>
        <mxCell id="FrsXDeaIF_2unot50Wv9-14" style="shape=tableRow;horizontal=0;startSize=0;swimlaneHead=0;swimlaneBody=0;fillColor=none;collapsible=0;dropTarget=0;points=[[0,0.5],[1,0.5]];portConstraint=eastwest;top=0;left=0;right=0;bottom=0;html=1;" vertex="1" parent="FrsXDeaIF_2unot50Wv9-1">
          <mxGeometry y="180" width="370" height="30" as="geometry" />
        </mxCell>
        <mxCell id="FrsXDeaIF_2unot50Wv9-15" value="FK, IntegerField" style="shape=partialRectangle;connectable=0;fillColor=none;top=0;left=0;bottom=0;right=0;editable=1;overflow=hidden;html=1;whiteSpace=wrap;" vertex="1" parent="FrsXDeaIF_2unot50Wv9-14">
          <mxGeometry width="210" height="30" as="geometry">
            <mxRectangle width="210" height="30" as="alternateBounds" />
          </mxGeometry>
        </mxCell>
        <mxCell id="FrsXDeaIF_2unot50Wv9-16" value="tagRoomId" style="shape=partialRectangle;connectable=0;fillColor=none;top=0;left=0;bottom=0;right=0;align=left;spacingLeft=6;overflow=hidden;html=1;whiteSpace=wrap;" vertex="1" parent="FrsXDeaIF_2unot50Wv9-14">
          <mxGeometry x="210" width="160" height="30" as="geometry">
            <mxRectangle width="160" height="30" as="alternateBounds" />
          </mxGeometry>
        </mxCell>
        <mxCell id="FrsXDeaIF_2unot50Wv9-17" style="shape=tableRow;horizontal=0;startSize=0;swimlaneHead=0;swimlaneBody=0;fillColor=none;collapsible=0;dropTarget=0;points=[[0,0.5],[1,0.5]];portConstraint=eastwest;top=0;left=0;right=0;bottom=0;html=1;" vertex="1" parent="FrsXDeaIF_2unot50Wv9-1">
          <mxGeometry y="210" width="370" height="30" as="geometry" />
        </mxCell>
        <mxCell id="FrsXDeaIF_2unot50Wv9-18" value="CharField" style="shape=partialRectangle;connectable=0;fillColor=none;top=0;left=0;bottom=0;right=0;editable=1;overflow=hidden;html=1;whiteSpace=wrap;" vertex="1" parent="FrsXDeaIF_2unot50Wv9-17">
          <mxGeometry width="210" height="30" as="geometry">
            <mxRectangle width="210" height="30" as="alternateBounds" />
          </mxGeometry>
        </mxCell>
        <mxCell id="FrsXDeaIF_2unot50Wv9-19" value="place" style="shape=partialRectangle;connectable=0;fillColor=none;top=0;left=0;bottom=0;right=0;align=left;spacingLeft=6;overflow=hidden;html=1;whiteSpace=wrap;" vertex="1" parent="FrsXDeaIF_2unot50Wv9-17">
          <mxGeometry x="210" width="160" height="30" as="geometry">
            <mxRectangle width="160" height="30" as="alternateBounds" />
          </mxGeometry>
        </mxCell>
        <mxCell id="FrsXDeaIF_2unot50Wv9-20" style="shape=tableRow;horizontal=0;startSize=0;swimlaneHead=0;swimlaneBody=0;fillColor=none;collapsible=0;dropTarget=0;points=[[0,0.5],[1,0.5]];portConstraint=eastwest;top=0;left=0;right=0;bottom=0;html=1;" vertex="1" parent="FrsXDeaIF_2unot50Wv9-1">
          <mxGeometry y="240" width="370" height="30" as="geometry" />
        </mxCell>
        <mxCell id="FrsXDeaIF_2unot50Wv9-21" value="CharField" style="shape=partialRectangle;connectable=0;fillColor=none;top=0;left=0;bottom=0;right=0;editable=1;overflow=hidden;html=1;whiteSpace=wrap;" vertex="1" parent="FrsXDeaIF_2unot50Wv9-20">
          <mxGeometry width="210" height="30" as="geometry">
            <mxRectangle width="210" height="30" as="alternateBounds" />
          </mxGeometry>
        </mxCell>
        <mxCell id="FrsXDeaIF_2unot50Wv9-22" value="gps" style="shape=partialRectangle;connectable=0;fillColor=none;top=0;left=0;bottom=0;right=0;align=left;spacingLeft=6;overflow=hidden;html=1;whiteSpace=wrap;" vertex="1" parent="FrsXDeaIF_2unot50Wv9-20">
          <mxGeometry x="210" width="160" height="30" as="geometry">
            <mxRectangle width="160" height="30" as="alternateBounds" />
          </mxGeometry>
        </mxCell>
        <mxCell id="FrsXDeaIF_2unot50Wv9-23" style="shape=tableRow;horizontal=0;startSize=0;swimlaneHead=0;swimlaneBody=0;fillColor=none;collapsible=0;dropTarget=0;points=[[0,0.5],[1,0.5]];portConstraint=eastwest;top=0;left=0;right=0;bottom=0;html=1;" vertex="1" parent="FrsXDeaIF_2unot50Wv9-1">
          <mxGeometry y="270" width="370" height="30" as="geometry" />
        </mxCell>
        <mxCell id="FrsXDeaIF_2unot50Wv9-24" value="DateField" style="shape=partialRectangle;connectable=0;fillColor=none;top=0;left=0;bottom=0;right=0;editable=1;overflow=hidden;html=1;whiteSpace=wrap;" vertex="1" parent="FrsXDeaIF_2unot50Wv9-23">
          <mxGeometry width="210" height="30" as="geometry">
            <mxRectangle width="210" height="30" as="alternateBounds" />
          </mxGeometry>
        </mxCell>
        <mxCell id="FrsXDeaIF_2unot50Wv9-25" value="date" style="shape=partialRectangle;connectable=0;fillColor=none;top=0;left=0;bottom=0;right=0;align=left;spacingLeft=6;overflow=hidden;html=1;whiteSpace=wrap;" vertex="1" parent="FrsXDeaIF_2unot50Wv9-23">
          <mxGeometry x="210" width="160" height="30" as="geometry">
            <mxRectangle width="160" height="30" as="alternateBounds" />
          </mxGeometry>
        </mxCell>
        <mxCell id="FrsXDeaIF_2unot50Wv9-26" style="shape=tableRow;horizontal=0;startSize=0;swimlaneHead=0;swimlaneBody=0;fillColor=none;collapsible=0;dropTarget=0;points=[[0,0.5],[1,0.5]];portConstraint=eastwest;top=0;left=0;right=0;bottom=0;html=1;" vertex="1" parent="FrsXDeaIF_2unot50Wv9-1">
          <mxGeometry y="300" width="370" height="30" as="geometry" />
        </mxCell>
        <mxCell id="FrsXDeaIF_2unot50Wv9-27" value="TimeField" style="shape=partialRectangle;connectable=0;fillColor=none;top=0;left=0;bottom=0;right=0;editable=1;overflow=hidden;html=1;whiteSpace=wrap;" vertex="1" parent="FrsXDeaIF_2unot50Wv9-26">
          <mxGeometry width="210" height="30" as="geometry">
            <mxRectangle width="210" height="30" as="alternateBounds" />
          </mxGeometry>
        </mxCell>
        <mxCell id="FrsXDeaIF_2unot50Wv9-28" value="time" style="shape=partialRectangle;connectable=0;fillColor=none;top=0;left=0;bottom=0;right=0;align=left;spacingLeft=6;overflow=hidden;html=1;whiteSpace=wrap;" vertex="1" parent="FrsXDeaIF_2unot50Wv9-26">
          <mxGeometry x="210" width="160" height="30" as="geometry">
            <mxRectangle width="160" height="30" as="alternateBounds" />
          </mxGeometry>
        </mxCell>
        <mxCell id="FrsXDeaIF_2unot50Wv9-29" style="shape=tableRow;horizontal=0;startSize=0;swimlaneHead=0;swimlaneBody=0;fillColor=none;collapsible=0;dropTarget=0;points=[[0,0.5],[1,0.5]];portConstraint=eastwest;top=0;left=0;right=0;bottom=0;html=1;" vertex="1" parent="FrsXDeaIF_2unot50Wv9-1">
          <mxGeometry y="330" width="370" height="30" as="geometry" />
        </mxCell>
        <mxCell id="FrsXDeaIF_2unot50Wv9-30" value="BooleanField" style="shape=partialRectangle;connectable=0;fillColor=none;top=0;left=0;bottom=0;right=0;editable=1;overflow=hidden;html=1;whiteSpace=wrap;" vertex="1" parent="FrsXDeaIF_2unot50Wv9-29">
          <mxGeometry width="210" height="30" as="geometry">
            <mxRectangle width="210" height="30" as="alternateBounds" />
          </mxGeometry>
        </mxCell>
        <mxCell id="FrsXDeaIF_2unot50Wv9-31" value="outdoor" style="shape=partialRectangle;connectable=0;fillColor=none;top=0;left=0;bottom=0;right=0;align=left;spacingLeft=6;overflow=hidden;html=1;whiteSpace=wrap;" vertex="1" parent="FrsXDeaIF_2unot50Wv9-29">
          <mxGeometry x="210" width="160" height="30" as="geometry">
            <mxRectangle width="160" height="30" as="alternateBounds" />
          </mxGeometry>
        </mxCell>
        <mxCell id="FrsXDeaIF_2unot50Wv9-32" style="shape=tableRow;horizontal=0;startSize=0;swimlaneHead=0;swimlaneBody=0;fillColor=none;collapsible=0;dropTarget=0;points=[[0,0.5],[1,0.5]];portConstraint=eastwest;top=0;left=0;right=0;bottom=0;html=1;" vertex="1" parent="FrsXDeaIF_2unot50Wv9-1">
          <mxGeometry y="360" width="370" height="30" as="geometry" />
        </mxCell>
        <mxCell id="FrsXDeaIF_2unot50Wv9-33" value="CharField" style="shape=partialRectangle;connectable=0;fillColor=none;top=0;left=0;bottom=0;right=0;editable=1;overflow=hidden;html=1;whiteSpace=wrap;" vertex="1" parent="FrsXDeaIF_2unot50Wv9-32">
          <mxGeometry width="210" height="30" as="geometry">
            <mxRectangle width="210" height="30" as="alternateBounds" />
          </mxGeometry>
        </mxCell>
        <mxCell id="FrsXDeaIF_2unot50Wv9-34" value="contact" style="shape=partialRectangle;connectable=0;fillColor=none;top=0;left=0;bottom=0;right=0;align=left;spacingLeft=6;overflow=hidden;html=1;whiteSpace=wrap;" vertex="1" parent="FrsXDeaIF_2unot50Wv9-32">
          <mxGeometry x="210" width="160" height="30" as="geometry">
            <mxRectangle width="160" height="30" as="alternateBounds" />
          </mxGeometry>
        </mxCell>
        <mxCell id="FrsXDeaIF_2unot50Wv9-35" style="shape=tableRow;horizontal=0;startSize=0;swimlaneHead=0;swimlaneBody=0;fillColor=none;collapsible=0;dropTarget=0;points=[[0,0.5],[1,0.5]];portConstraint=eastwest;top=0;left=0;right=0;bottom=0;html=1;" vertex="1" parent="FrsXDeaIF_2unot50Wv9-1">
          <mxGeometry y="390" width="370" height="30" as="geometry" />
        </mxCell>
        <mxCell id="FrsXDeaIF_2unot50Wv9-36" value="CharField" style="shape=partialRectangle;connectable=0;fillColor=none;top=0;left=0;bottom=0;right=0;editable=1;overflow=hidden;html=1;whiteSpace=wrap;" vertex="1" parent="FrsXDeaIF_2unot50Wv9-35">
          <mxGeometry width="210" height="30" as="geometry">
            <mxRectangle width="210" height="30" as="alternateBounds" />
          </mxGeometry>
        </mxCell>
        <mxCell id="FrsXDeaIF_2unot50Wv9-37" value="contactPrivate" style="shape=partialRectangle;connectable=0;fillColor=none;top=0;left=0;bottom=0;right=0;align=left;spacingLeft=6;overflow=hidden;html=1;whiteSpace=wrap;" vertex="1" parent="FrsXDeaIF_2unot50Wv9-35">
          <mxGeometry x="210" width="160" height="30" as="geometry">
            <mxRectangle width="160" height="30" as="alternateBounds" />
          </mxGeometry>
        </mxCell>
        <mxCell id="FrsXDeaIF_2unot50Wv9-11" value="" style="shape=tableRow;horizontal=0;startSize=0;swimlaneHead=0;swimlaneBody=0;fillColor=none;collapsible=0;dropTarget=0;points=[[0,0.5],[1,0.5]];portConstraint=eastwest;top=0;left=0;right=0;bottom=0;html=1;" vertex="1" parent="FrsXDeaIF_2unot50Wv9-1">
          <mxGeometry y="420" width="370" height="30" as="geometry" />
        </mxCell>
        <mxCell id="FrsXDeaIF_2unot50Wv9-12" value="PositiveSmallIntegerField" style="shape=partialRectangle;connectable=0;fillColor=none;top=0;left=0;bottom=0;right=0;editable=1;overflow=hidden;html=1;whiteSpace=wrap;" vertex="1" parent="FrsXDeaIF_2unot50Wv9-11">
          <mxGeometry width="210" height="30" as="geometry">
            <mxRectangle width="210" height="30" as="alternateBounds" />
          </mxGeometry>
        </mxCell>
        <mxCell id="FrsXDeaIF_2unot50Wv9-13" value="ageRestriction" style="shape=partialRectangle;connectable=0;fillColor=none;top=0;left=0;bottom=0;right=0;align=left;spacingLeft=6;overflow=hidden;html=1;whiteSpace=wrap;" vertex="1" parent="FrsXDeaIF_2unot50Wv9-11">
          <mxGeometry x="210" width="160" height="30" as="geometry">
            <mxRectangle width="160" height="30" as="alternateBounds" />
          </mxGeometry>
        </mxCell>
        <mxCell id="FrsXDeaIF_2unot50Wv9-80" style="shape=tableRow;horizontal=0;startSize=0;swimlaneHead=0;swimlaneBody=0;fillColor=none;collapsible=0;dropTarget=0;points=[[0,0.5],[1,0.5]];portConstraint=eastwest;top=0;left=0;right=0;bottom=0;html=1;" vertex="1" parent="FrsXDeaIF_2unot50Wv9-1">
          <mxGeometry y="450" width="370" height="30" as="geometry" />
        </mxCell>
        <mxCell id="FrsXDeaIF_2unot50Wv9-81" value="CharField" style="shape=partialRectangle;connectable=0;fillColor=none;top=0;left=0;bottom=0;right=0;editable=1;overflow=hidden;html=1;whiteSpace=wrap;" vertex="1" parent="FrsXDeaIF_2unot50Wv9-80">
          <mxGeometry width="210" height="30" as="geometry">
            <mxRectangle width="210" height="30" as="alternateBounds" />
          </mxGeometry>
        </mxCell>
        <mxCell id="FrsXDeaIF_2unot50Wv9-82" value="ageRecommendation" style="shape=partialRectangle;connectable=0;fillColor=none;top=0;left=0;bottom=0;right=0;align=left;spacingLeft=6;overflow=hidden;html=1;whiteSpace=wrap;" vertex="1" parent="FrsXDeaIF_2unot50Wv9-80">
          <mxGeometry x="210" width="160" height="30" as="geometry">
            <mxRectangle width="160" height="30" as="alternateBounds" />
          </mxGeometry>
        </mxCell>
        <mxCell id="FrsXDeaIF_2unot50Wv9-77" style="shape=tableRow;horizontal=0;startSize=0;swimlaneHead=0;swimlaneBody=0;fillColor=none;collapsible=0;dropTarget=0;points=[[0,0.5],[1,0.5]];portConstraint=eastwest;top=0;left=0;right=0;bottom=0;html=1;" vertex="1" parent="FrsXDeaIF_2unot50Wv9-1">
          <mxGeometry y="480" width="370" height="30" as="geometry" />
        </mxCell>
        <mxCell id="FrsXDeaIF_2unot50Wv9-78" value="PositiveSmallIntegerField" style="shape=partialRectangle;connectable=0;fillColor=none;top=0;left=0;bottom=0;right=0;editable=1;overflow=hidden;html=1;whiteSpace=wrap;" vertex="1" parent="FrsXDeaIF_2unot50Wv9-77">
          <mxGeometry width="210" height="30" as="geometry">
            <mxRectangle width="210" height="30" as="alternateBounds" />
          </mxGeometry>
        </mxCell>
        <mxCell id="FrsXDeaIF_2unot50Wv9-79" value="minimumParticipants" style="shape=partialRectangle;connectable=0;fillColor=none;top=0;left=0;bottom=0;right=0;align=left;spacingLeft=6;overflow=hidden;html=1;whiteSpace=wrap;" vertex="1" parent="FrsXDeaIF_2unot50Wv9-77">
          <mxGeometry x="210" width="160" height="30" as="geometry">
            <mxRectangle width="160" height="30" as="alternateBounds" />
          </mxGeometry>
        </mxCell>
        <mxCell id="FrsXDeaIF_2unot50Wv9-74" style="shape=tableRow;horizontal=0;startSize=0;swimlaneHead=0;swimlaneBody=0;fillColor=none;collapsible=0;dropTarget=0;points=[[0,0.5],[1,0.5]];portConstraint=eastwest;top=0;left=0;right=0;bottom=0;html=1;" vertex="1" parent="FrsXDeaIF_2unot50Wv9-1">
          <mxGeometry y="510" width="370" height="30" as="geometry" />
        </mxCell>
        <mxCell id="FrsXDeaIF_2unot50Wv9-75" value="PositiveSmallIntegerField" style="shape=partialRectangle;connectable=0;fillColor=none;top=0;left=0;bottom=0;right=0;editable=1;overflow=hidden;html=1;whiteSpace=wrap;" vertex="1" parent="FrsXDeaIF_2unot50Wv9-74">
          <mxGeometry width="210" height="30" as="geometry">
            <mxRectangle width="210" height="30" as="alternateBounds" />
          </mxGeometry>
        </mxCell>
        <mxCell id="FrsXDeaIF_2unot50Wv9-76" value="maximumParticipants" style="shape=partialRectangle;connectable=0;fillColor=none;top=0;left=0;bottom=0;right=0;align=left;spacingLeft=6;overflow=hidden;html=1;whiteSpace=wrap;" vertex="1" parent="FrsXDeaIF_2unot50Wv9-74">
          <mxGeometry x="210" width="160" height="30" as="geometry">
            <mxRectangle width="160" height="30" as="alternateBounds" />
          </mxGeometry>
        </mxCell>
        <mxCell id="FrsXDeaIF_2unot50Wv9-71" style="shape=tableRow;horizontal=0;startSize=0;swimlaneHead=0;swimlaneBody=0;fillColor=none;collapsible=0;dropTarget=0;points=[[0,0.5],[1,0.5]];portConstraint=eastwest;top=0;left=0;right=0;bottom=0;html=1;" vertex="1" parent="FrsXDeaIF_2unot50Wv9-1">
          <mxGeometry y="540" width="370" height="30" as="geometry" />
        </mxCell>
        <mxCell id="FrsXDeaIF_2unot50Wv9-72" value="FK, IntegerField" style="shape=partialRectangle;connectable=0;fillColor=none;top=0;left=0;bottom=0;right=0;editable=1;overflow=hidden;html=1;whiteSpace=wrap;" vertex="1" parent="FrsXDeaIF_2unot50Wv9-71">
          <mxGeometry width="210" height="30" as="geometry">
            <mxRectangle width="210" height="30" as="alternateBounds" />
          </mxGeometry>
        </mxCell>
        <mxCell id="FrsXDeaIF_2unot50Wv9-73" value="menuId" style="shape=partialRectangle;connectable=0;fillColor=none;top=0;left=0;bottom=0;right=0;align=left;spacingLeft=6;overflow=hidden;html=1;whiteSpace=wrap;" vertex="1" parent="FrsXDeaIF_2unot50Wv9-71">
          <mxGeometry x="210" width="160" height="30" as="geometry">
            <mxRectangle width="160" height="30" as="alternateBounds" />
          </mxGeometry>
        </mxCell>
        <mxCell id="FrsXDeaIF_2unot50Wv9-194" style="shape=tableRow;horizontal=0;startSize=0;swimlaneHead=0;swimlaneBody=0;fillColor=none;collapsible=0;dropTarget=0;points=[[0,0.5],[1,0.5]];portConstraint=eastwest;top=0;left=0;right=0;bottom=0;html=1;" vertex="1" parent="FrsXDeaIF_2unot50Wv9-1">
          <mxGeometry y="570" width="370" height="30" as="geometry" />
        </mxCell>
        <mxCell id="FrsXDeaIF_2unot50Wv9-195" value="IntegerFIeld" style="shape=partialRectangle;connectable=0;fillColor=none;top=0;left=0;bottom=0;right=0;editable=1;overflow=hidden;html=1;whiteSpace=wrap;" vertex="1" parent="FrsXDeaIF_2unot50Wv9-194">
          <mxGeometry width="210" height="30" as="geometry">
            <mxRectangle width="210" height="30" as="alternateBounds" />
          </mxGeometry>
        </mxCell>
        <mxCell id="FrsXDeaIF_2unot50Wv9-196" value="repeatable" style="shape=partialRectangle;connectable=0;fillColor=none;top=0;left=0;bottom=0;right=0;align=left;spacingLeft=6;overflow=hidden;html=1;whiteSpace=wrap;" vertex="1" parent="FrsXDeaIF_2unot50Wv9-194">
          <mxGeometry x="210" width="160" height="30" as="geometry">
            <mxRectangle width="160" height="30" as="alternateBounds" />
          </mxGeometry>
        </mxCell>
        <mxCell id="FrsXDeaIF_2unot50Wv9-119" style="shape=tableRow;horizontal=0;startSize=0;swimlaneHead=0;swimlaneBody=0;fillColor=none;collapsible=0;dropTarget=0;points=[[0,0.5],[1,0.5]];portConstraint=eastwest;top=0;left=0;right=0;bottom=0;html=1;" vertex="1" parent="FrsXDeaIF_2unot50Wv9-1">
          <mxGeometry y="600" width="370" height="30" as="geometry" />
        </mxCell>
        <mxCell id="FrsXDeaIF_2unot50Wv9-120" value="FK, IntegerField" style="shape=partialRectangle;connectable=0;fillColor=none;top=0;left=0;bottom=0;right=0;editable=1;overflow=hidden;html=1;whiteSpace=wrap;" vertex="1" parent="FrsXDeaIF_2unot50Wv9-119">
          <mxGeometry width="210" height="30" as="geometry">
            <mxRectangle width="210" height="30" as="alternateBounds" />
          </mxGeometry>
        </mxCell>
        <mxCell id="FrsXDeaIF_2unot50Wv9-121" value="galleryImage" style="shape=partialRectangle;connectable=0;fillColor=none;top=0;left=0;bottom=0;right=0;align=left;spacingLeft=6;overflow=hidden;html=1;whiteSpace=wrap;" vertex="1" parent="FrsXDeaIF_2unot50Wv9-119">
          <mxGeometry x="210" width="160" height="30" as="geometry">
            <mxRectangle width="160" height="30" as="alternateBounds" />
          </mxGeometry>
        </mxCell>
        <mxCell id="FrsXDeaIF_2unot50Wv9-227" style="shape=tableRow;horizontal=0;startSize=0;swimlaneHead=0;swimlaneBody=0;fillColor=none;collapsible=0;dropTarget=0;points=[[0,0.5],[1,0.5]];portConstraint=eastwest;top=0;left=0;right=0;bottom=0;html=1;" vertex="1" parent="FrsXDeaIF_2unot50Wv9-1">
          <mxGeometry y="630" width="370" height="30" as="geometry" />
        </mxCell>
        <mxCell id="FrsXDeaIF_2unot50Wv9-228" value="BooleanField" style="shape=partialRectangle;connectable=0;fillColor=none;top=0;left=0;bottom=0;right=0;editable=1;overflow=hidden;html=1;whiteSpace=wrap;" vertex="1" parent="FrsXDeaIF_2unot50Wv9-227">
          <mxGeometry width="210" height="30" as="geometry">
            <mxRectangle width="210" height="30" as="alternateBounds" />
          </mxGeometry>
        </mxCell>
        <mxCell id="FrsXDeaIF_2unot50Wv9-229" value="paidUniqueness" style="shape=partialRectangle;connectable=0;fillColor=none;top=0;left=0;bottom=0;right=0;align=left;spacingLeft=6;overflow=hidden;html=1;whiteSpace=wrap;" vertex="1" parent="FrsXDeaIF_2unot50Wv9-227">
          <mxGeometry x="210" width="160" height="30" as="geometry">
            <mxRectangle width="160" height="30" as="alternateBounds" />
          </mxGeometry>
        </mxCell>
        <mxCell id="FrsXDeaIF_2unot50Wv9-116" style="shape=tableRow;horizontal=0;startSize=0;swimlaneHead=0;swimlaneBody=0;fillColor=none;collapsible=0;dropTarget=0;points=[[0,0.5],[1,0.5]];portConstraint=eastwest;top=0;left=0;right=0;bottom=0;html=1;" vertex="1" parent="FrsXDeaIF_2unot50Wv9-1">
          <mxGeometry y="660" width="370" height="30" as="geometry" />
        </mxCell>
        <mxCell id="FrsXDeaIF_2unot50Wv9-117" value="ChoiceField" style="shape=partialRectangle;connectable=0;fillColor=none;top=0;left=0;bottom=0;right=0;editable=1;overflow=hidden;html=1;whiteSpace=wrap;" vertex="1" parent="FrsXDeaIF_2unot50Wv9-116">
          <mxGeometry width="210" height="30" as="geometry">
            <mxRectangle width="210" height="30" as="alternateBounds" />
          </mxGeometry>
        </mxCell>
        <mxCell id="FrsXDeaIF_2unot50Wv9-118" value="template" style="shape=partialRectangle;connectable=0;fillColor=none;top=0;left=0;bottom=0;right=0;align=left;spacingLeft=6;overflow=hidden;html=1;whiteSpace=wrap;" vertex="1" parent="FrsXDeaIF_2unot50Wv9-116">
          <mxGeometry x="210" width="160" height="30" as="geometry">
            <mxRectangle width="160" height="30" as="alternateBounds" />
          </mxGeometry>
        </mxCell>
        <mxCell id="FrsXDeaIF_2unot50Wv9-54" value="tagAssign" style="shape=table;startSize=30;container=1;collapsible=1;childLayout=tableLayout;fixedRows=1;rowLines=0;fontStyle=1;align=center;resizeLast=1;html=1;whiteSpace=wrap;" vertex="1" parent="1">
          <mxGeometry x="-1170" y="155" width="250" height="90" as="geometry" />
        </mxCell>
        <mxCell id="FrsXDeaIF_2unot50Wv9-55" value="" style="shape=tableRow;horizontal=0;startSize=0;swimlaneHead=0;swimlaneBody=0;fillColor=none;collapsible=0;dropTarget=0;points=[[0,0.5],[1,0.5]];portConstraint=eastwest;top=0;left=0;right=0;bottom=0;html=1;" vertex="1" parent="FrsXDeaIF_2unot50Wv9-54">
          <mxGeometry y="30" width="250" height="30" as="geometry" />
        </mxCell>
        <mxCell id="FrsXDeaIF_2unot50Wv9-56" value="PK, FK" style="shape=partialRectangle;connectable=0;fillColor=none;top=0;left=0;bottom=0;right=0;fontStyle=1;overflow=hidden;html=1;whiteSpace=wrap;" vertex="1" parent="FrsXDeaIF_2unot50Wv9-55">
          <mxGeometry width="80" height="30" as="geometry">
            <mxRectangle width="80" height="30" as="alternateBounds" />
          </mxGeometry>
        </mxCell>
        <mxCell id="FrsXDeaIF_2unot50Wv9-57" value="tagId" style="shape=partialRectangle;connectable=0;fillColor=none;top=0;left=0;bottom=0;right=0;align=left;spacingLeft=6;fontStyle=5;overflow=hidden;html=1;whiteSpace=wrap;" vertex="1" parent="FrsXDeaIF_2unot50Wv9-55">
          <mxGeometry x="80" width="170" height="30" as="geometry">
            <mxRectangle width="170" height="30" as="alternateBounds" />
          </mxGeometry>
        </mxCell>
        <mxCell id="FrsXDeaIF_2unot50Wv9-58" value="" style="shape=tableRow;horizontal=0;startSize=0;swimlaneHead=0;swimlaneBody=0;fillColor=none;collapsible=0;dropTarget=0;points=[[0,0.5],[1,0.5]];portConstraint=eastwest;top=0;left=0;right=0;bottom=1;html=1;" vertex="1" parent="FrsXDeaIF_2unot50Wv9-54">
          <mxGeometry y="60" width="250" height="30" as="geometry" />
        </mxCell>
        <mxCell id="FrsXDeaIF_2unot50Wv9-59" value="PK, FK" style="shape=partialRectangle;connectable=0;fillColor=none;top=0;left=0;bottom=0;right=0;fontStyle=1;overflow=hidden;html=1;whiteSpace=wrap;" vertex="1" parent="FrsXDeaIF_2unot50Wv9-58">
          <mxGeometry width="80" height="30" as="geometry">
            <mxRectangle width="80" height="30" as="alternateBounds" />
          </mxGeometry>
        </mxCell>
        <mxCell id="FrsXDeaIF_2unot50Wv9-60" value="tagRoomId" style="shape=partialRectangle;connectable=0;fillColor=none;top=0;left=0;bottom=0;right=0;align=left;spacingLeft=6;fontStyle=5;overflow=hidden;html=1;whiteSpace=wrap;" vertex="1" parent="FrsXDeaIF_2unot50Wv9-58">
          <mxGeometry x="80" width="170" height="30" as="geometry">
            <mxRectangle width="170" height="30" as="alternateBounds" />
          </mxGeometry>
        </mxCell>
        <mxCell id="FrsXDeaIF_2unot50Wv9-68" style="edgeStyle=orthogonalEdgeStyle;rounded=0;orthogonalLoop=1;jettySize=auto;html=1;startArrow=ERoneToMany;startFill=0;endArrow=ERmandOne;endFill=0;" edge="1" parent="1" source="FrsXDeaIF_2unot50Wv9-58" target="FrsXDeaIF_2unot50Wv9-14">
          <mxGeometry relative="1" as="geometry">
            <Array as="points">
              <mxPoint x="-1210" y="230" />
              <mxPoint x="-1210" y="485" />
            </Array>
          </mxGeometry>
        </mxCell>
        <mxCell id="FrsXDeaIF_2unot50Wv9-70" style="edgeStyle=orthogonalEdgeStyle;rounded=0;orthogonalLoop=1;jettySize=auto;html=1;endArrow=ERoneToMany;endFill=0;startArrow=ERmandOne;startFill=0;" edge="1" parent="1" source="FrsXDeaIF_2unot50Wv9-42" target="FrsXDeaIF_2unot50Wv9-55">
          <mxGeometry relative="1" as="geometry">
            <Array as="points">
              <mxPoint x="-1210" y="35" />
              <mxPoint x="-1210" y="200" />
            </Array>
          </mxGeometry>
        </mxCell>
        <mxCell id="FrsXDeaIF_2unot50Wv9-38" value="tag" style="shape=table;startSize=30;container=1;collapsible=1;childLayout=tableLayout;fixedRows=1;rowLines=0;fontStyle=1;align=center;resizeLast=1;html=1;whiteSpace=wrap;" vertex="1" parent="1">
          <mxGeometry x="-1160" y="-10" width="180" height="90" as="geometry" />
        </mxCell>
        <mxCell id="FrsXDeaIF_2unot50Wv9-42" value="" style="shape=tableRow;horizontal=0;startSize=0;swimlaneHead=0;swimlaneBody=0;fillColor=none;collapsible=0;dropTarget=0;points=[[0,0.5],[1,0.5]];portConstraint=eastwest;top=0;left=0;right=0;bottom=1;html=1;swimlaneLine=1;perimeterSpacing=0;swimlaneFillColor=#000000;" vertex="1" parent="FrsXDeaIF_2unot50Wv9-38">
          <mxGeometry y="30" width="180" height="30" as="geometry" />
        </mxCell>
        <mxCell id="FrsXDeaIF_2unot50Wv9-43" value="PK" style="shape=partialRectangle;connectable=0;fillColor=none;top=0;left=0;bottom=0;right=0;fontStyle=1;overflow=hidden;html=1;whiteSpace=wrap;" vertex="1" parent="FrsXDeaIF_2unot50Wv9-42">
          <mxGeometry width="60" height="30" as="geometry">
            <mxRectangle width="60" height="30" as="alternateBounds" />
          </mxGeometry>
        </mxCell>
        <mxCell id="FrsXDeaIF_2unot50Wv9-44" value="id" style="shape=partialRectangle;connectable=0;fillColor=none;top=0;left=0;bottom=0;right=0;align=left;spacingLeft=6;fontStyle=5;overflow=hidden;html=1;whiteSpace=wrap;" vertex="1" parent="FrsXDeaIF_2unot50Wv9-42">
          <mxGeometry x="60" width="120" height="30" as="geometry">
            <mxRectangle width="120" height="30" as="alternateBounds" />
          </mxGeometry>
        </mxCell>
        <mxCell id="FrsXDeaIF_2unot50Wv9-45" value="" style="shape=tableRow;horizontal=0;startSize=0;swimlaneHead=0;swimlaneBody=0;fillColor=none;collapsible=0;dropTarget=0;points=[[0,0.5],[1,0.5]];portConstraint=eastwest;top=0;left=0;right=0;bottom=0;html=1;" vertex="1" parent="FrsXDeaIF_2unot50Wv9-38">
          <mxGeometry y="60" width="180" height="30" as="geometry" />
        </mxCell>
        <mxCell id="FrsXDeaIF_2unot50Wv9-46" value="CharField" style="shape=partialRectangle;connectable=0;fillColor=none;top=0;left=0;bottom=0;right=0;editable=1;overflow=hidden;html=1;whiteSpace=wrap;" vertex="1" parent="FrsXDeaIF_2unot50Wv9-45">
          <mxGeometry width="60" height="30" as="geometry">
            <mxRectangle width="60" height="30" as="alternateBounds" />
          </mxGeometry>
        </mxCell>
        <mxCell id="FrsXDeaIF_2unot50Wv9-47" value="name" style="shape=partialRectangle;connectable=0;fillColor=none;top=0;left=0;bottom=0;right=0;align=left;spacingLeft=6;overflow=hidden;html=1;whiteSpace=wrap;" vertex="1" parent="FrsXDeaIF_2unot50Wv9-45">
          <mxGeometry x="60" width="120" height="30" as="geometry">
            <mxRectangle width="120" height="30" as="alternateBounds" />
          </mxGeometry>
        </mxCell>
        <mxCell id="FrsXDeaIF_2unot50Wv9-52" value="&lt;div&gt;tag bude vo viacerych room&lt;br&gt;&lt;/div&gt;" style="text;html=1;strokeColor=none;fillColor=none;align=center;verticalAlign=middle;whiteSpace=wrap;rounded=0;" vertex="1" parent="1">
          <mxGeometry x="-1200" y="60" width="220" height="70" as="geometry" />
        </mxCell>
        <mxCell id="FrsXDeaIF_2unot50Wv9-84" value="&lt;div&gt;room bude moct mat viacero tagov&lt;br&gt;&lt;/div&gt;" style="text;html=1;strokeColor=none;fillColor=none;align=center;verticalAlign=middle;whiteSpace=wrap;rounded=0;" vertex="1" parent="1">
          <mxGeometry x="-1200" y="290" width="220" height="70" as="geometry" />
        </mxCell>
        <mxCell id="FrsXDeaIF_2unot50Wv9-98" value="menuItems" style="shape=table;startSize=30;container=1;collapsible=1;childLayout=tableLayout;fixedRows=1;rowLines=0;fontStyle=1;align=center;resizeLast=1;html=1;" vertex="1" parent="1">
          <mxGeometry x="-1150" y="990" width="250" height="150" as="geometry" />
        </mxCell>
        <mxCell id="FrsXDeaIF_2unot50Wv9-99" value="" style="shape=tableRow;horizontal=0;startSize=0;swimlaneHead=0;swimlaneBody=0;fillColor=none;collapsible=0;dropTarget=0;points=[[0,0.5],[1,0.5]];portConstraint=eastwest;top=0;left=0;right=0;bottom=1;" vertex="1" parent="FrsXDeaIF_2unot50Wv9-98">
          <mxGeometry y="30" width="250" height="30" as="geometry" />
        </mxCell>
        <mxCell id="FrsXDeaIF_2unot50Wv9-100" value="PK" style="shape=partialRectangle;connectable=0;fillColor=none;top=0;left=0;bottom=0;right=0;fontStyle=1;overflow=hidden;whiteSpace=wrap;html=1;" vertex="1" parent="FrsXDeaIF_2unot50Wv9-99">
          <mxGeometry width="160" height="30" as="geometry">
            <mxRectangle width="160" height="30" as="alternateBounds" />
          </mxGeometry>
        </mxCell>
        <mxCell id="FrsXDeaIF_2unot50Wv9-101" value="id" style="shape=partialRectangle;connectable=0;fillColor=none;top=0;left=0;bottom=0;right=0;align=left;spacingLeft=6;fontStyle=5;overflow=hidden;whiteSpace=wrap;html=1;" vertex="1" parent="FrsXDeaIF_2unot50Wv9-99">
          <mxGeometry x="160" width="90" height="30" as="geometry">
            <mxRectangle width="90" height="30" as="alternateBounds" />
          </mxGeometry>
        </mxCell>
        <mxCell id="FrsXDeaIF_2unot50Wv9-102" value="" style="shape=tableRow;horizontal=0;startSize=0;swimlaneHead=0;swimlaneBody=0;fillColor=none;collapsible=0;dropTarget=0;points=[[0,0.5],[1,0.5]];portConstraint=eastwest;top=0;left=0;right=0;bottom=0;" vertex="1" parent="FrsXDeaIF_2unot50Wv9-98">
          <mxGeometry y="60" width="250" height="30" as="geometry" />
        </mxCell>
        <mxCell id="FrsXDeaIF_2unot50Wv9-103" value="CharField" style="shape=partialRectangle;connectable=0;fillColor=none;top=0;left=0;bottom=0;right=0;editable=1;overflow=hidden;whiteSpace=wrap;html=1;" vertex="1" parent="FrsXDeaIF_2unot50Wv9-102">
          <mxGeometry width="160" height="30" as="geometry">
            <mxRectangle width="160" height="30" as="alternateBounds" />
          </mxGeometry>
        </mxCell>
        <mxCell id="FrsXDeaIF_2unot50Wv9-104" value="itemName" style="shape=partialRectangle;connectable=0;fillColor=none;top=0;left=0;bottom=0;right=0;align=left;spacingLeft=6;overflow=hidden;whiteSpace=wrap;html=1;" vertex="1" parent="FrsXDeaIF_2unot50Wv9-102">
          <mxGeometry x="160" width="90" height="30" as="geometry">
            <mxRectangle width="90" height="30" as="alternateBounds" />
          </mxGeometry>
        </mxCell>
        <mxCell id="FrsXDeaIF_2unot50Wv9-105" value="" style="shape=tableRow;horizontal=0;startSize=0;swimlaneHead=0;swimlaneBody=0;fillColor=none;collapsible=0;dropTarget=0;points=[[0,0.5],[1,0.5]];portConstraint=eastwest;top=0;left=0;right=0;bottom=0;" vertex="1" parent="FrsXDeaIF_2unot50Wv9-98">
          <mxGeometry y="90" width="250" height="30" as="geometry" />
        </mxCell>
        <mxCell id="FrsXDeaIF_2unot50Wv9-106" value="DecimalField" style="shape=partialRectangle;connectable=0;fillColor=none;top=0;left=0;bottom=0;right=0;editable=1;overflow=hidden;whiteSpace=wrap;html=1;" vertex="1" parent="FrsXDeaIF_2unot50Wv9-105">
          <mxGeometry width="160" height="30" as="geometry">
            <mxRectangle width="160" height="30" as="alternateBounds" />
          </mxGeometry>
        </mxCell>
        <mxCell id="FrsXDeaIF_2unot50Wv9-107" value="price" style="shape=partialRectangle;connectable=0;fillColor=none;top=0;left=0;bottom=0;right=0;align=left;spacingLeft=6;overflow=hidden;whiteSpace=wrap;html=1;" vertex="1" parent="FrsXDeaIF_2unot50Wv9-105">
          <mxGeometry x="160" width="90" height="30" as="geometry">
            <mxRectangle width="90" height="30" as="alternateBounds" />
          </mxGeometry>
        </mxCell>
        <mxCell id="FrsXDeaIF_2unot50Wv9-108" value="" style="shape=tableRow;horizontal=0;startSize=0;swimlaneHead=0;swimlaneBody=0;fillColor=none;collapsible=0;dropTarget=0;points=[[0,0.5],[1,0.5]];portConstraint=eastwest;top=0;left=0;right=0;bottom=0;" vertex="1" parent="FrsXDeaIF_2unot50Wv9-98">
          <mxGeometry y="120" width="250" height="30" as="geometry" />
        </mxCell>
        <mxCell id="FrsXDeaIF_2unot50Wv9-109" value="PositiveSmallIntegerField" style="shape=partialRectangle;connectable=0;fillColor=none;top=0;left=0;bottom=0;right=0;editable=1;overflow=hidden;whiteSpace=wrap;html=1;" vertex="1" parent="FrsXDeaIF_2unot50Wv9-108">
          <mxGeometry width="160" height="30" as="geometry">
            <mxRectangle width="160" height="30" as="alternateBounds" />
          </mxGeometry>
        </mxCell>
        <mxCell id="FrsXDeaIF_2unot50Wv9-110" value="duration" style="shape=partialRectangle;connectable=0;fillColor=none;top=0;left=0;bottom=0;right=0;align=left;spacingLeft=6;overflow=hidden;whiteSpace=wrap;html=1;" vertex="1" parent="FrsXDeaIF_2unot50Wv9-108">
          <mxGeometry x="160" width="90" height="30" as="geometry">
            <mxRectangle width="90" height="30" as="alternateBounds" />
          </mxGeometry>
        </mxCell>
        <mxCell id="FrsXDeaIF_2unot50Wv9-115" style="edgeStyle=orthogonalEdgeStyle;rounded=0;orthogonalLoop=1;jettySize=auto;html=1;endArrow=ERmandOne;endFill=0;startArrow=ERoneToMany;startFill=0;" edge="1" parent="1" source="FrsXDeaIF_2unot50Wv9-99" target="FrsXDeaIF_2unot50Wv9-71">
          <mxGeometry relative="1" as="geometry">
            <Array as="points">
              <mxPoint x="-1200" y="1035" />
              <mxPoint x="-1200" y="845" />
            </Array>
          </mxGeometry>
        </mxCell>
        <mxCell id="FrsXDeaIF_2unot50Wv9-128" value="ownerRoomAssign" style="shape=table;startSize=30;container=1;collapsible=1;childLayout=tableLayout;fixedRows=1;rowLines=0;fontStyle=1;align=center;resizeLast=1;html=1;whiteSpace=wrap;" vertex="1" parent="1">
          <mxGeometry x="-500" y="190" width="180" height="90" as="geometry" />
        </mxCell>
        <mxCell id="FrsXDeaIF_2unot50Wv9-129" value="" style="shape=tableRow;horizontal=0;startSize=0;swimlaneHead=0;swimlaneBody=0;fillColor=none;collapsible=0;dropTarget=0;points=[[0,0.5],[1,0.5]];portConstraint=eastwest;top=0;left=0;right=0;bottom=0;html=1;" vertex="1" parent="FrsXDeaIF_2unot50Wv9-128">
          <mxGeometry y="30" width="180" height="30" as="geometry" />
        </mxCell>
        <mxCell id="FrsXDeaIF_2unot50Wv9-130" value="PK,FK1" style="shape=partialRectangle;connectable=0;fillColor=none;top=0;left=0;bottom=0;right=0;fontStyle=1;overflow=hidden;html=1;whiteSpace=wrap;" vertex="1" parent="FrsXDeaIF_2unot50Wv9-129">
          <mxGeometry width="60" height="30" as="geometry">
            <mxRectangle width="60" height="30" as="alternateBounds" />
          </mxGeometry>
        </mxCell>
        <mxCell id="FrsXDeaIF_2unot50Wv9-131" value="personOwnerId" style="shape=partialRectangle;connectable=0;fillColor=none;top=0;left=0;bottom=0;right=0;align=left;spacingLeft=6;fontStyle=5;overflow=hidden;html=1;whiteSpace=wrap;" vertex="1" parent="FrsXDeaIF_2unot50Wv9-129">
          <mxGeometry x="60" width="120" height="30" as="geometry">
            <mxRectangle width="120" height="30" as="alternateBounds" />
          </mxGeometry>
        </mxCell>
        <mxCell id="FrsXDeaIF_2unot50Wv9-132" value="" style="shape=tableRow;horizontal=0;startSize=0;swimlaneHead=0;swimlaneBody=0;fillColor=none;collapsible=0;dropTarget=0;points=[[0,0.5],[1,0.5]];portConstraint=eastwest;top=0;left=0;right=0;bottom=1;html=1;" vertex="1" parent="FrsXDeaIF_2unot50Wv9-128">
          <mxGeometry y="60" width="180" height="30" as="geometry" />
        </mxCell>
        <mxCell id="FrsXDeaIF_2unot50Wv9-133" value="PK,FK2" style="shape=partialRectangle;connectable=0;fillColor=none;top=0;left=0;bottom=0;right=0;fontStyle=1;overflow=hidden;html=1;whiteSpace=wrap;" vertex="1" parent="FrsXDeaIF_2unot50Wv9-132">
          <mxGeometry width="60" height="30" as="geometry">
            <mxRectangle width="60" height="30" as="alternateBounds" />
          </mxGeometry>
        </mxCell>
        <mxCell id="FrsXDeaIF_2unot50Wv9-134" value="ownerAssignId" style="shape=partialRectangle;connectable=0;fillColor=none;top=0;left=0;bottom=0;right=0;align=left;spacingLeft=6;fontStyle=5;overflow=hidden;html=1;whiteSpace=wrap;" vertex="1" parent="FrsXDeaIF_2unot50Wv9-132">
          <mxGeometry x="60" width="120" height="30" as="geometry">
            <mxRectangle width="120" height="30" as="alternateBounds" />
          </mxGeometry>
        </mxCell>
        <mxCell id="FrsXDeaIF_2unot50Wv9-141" value="personOwner" style="shape=table;startSize=30;container=1;collapsible=1;childLayout=tableLayout;fixedRows=1;rowLines=0;fontStyle=1;align=center;resizeLast=1;html=1;" vertex="1" parent="1">
          <mxGeometry x="-490" y="-70" width="180" height="180" as="geometry" />
        </mxCell>
        <mxCell id="FrsXDeaIF_2unot50Wv9-142" value="" style="shape=tableRow;horizontal=0;startSize=0;swimlaneHead=0;swimlaneBody=0;fillColor=none;collapsible=0;dropTarget=0;points=[[0,0.5],[1,0.5]];portConstraint=eastwest;top=0;left=0;right=0;bottom=1;" vertex="1" parent="FrsXDeaIF_2unot50Wv9-141">
          <mxGeometry y="30" width="180" height="30" as="geometry" />
        </mxCell>
        <mxCell id="FrsXDeaIF_2unot50Wv9-143" value="PK" style="shape=partialRectangle;connectable=0;fillColor=none;top=0;left=0;bottom=0;right=0;fontStyle=1;overflow=hidden;whiteSpace=wrap;html=1;" vertex="1" parent="FrsXDeaIF_2unot50Wv9-142">
          <mxGeometry width="90" height="30" as="geometry">
            <mxRectangle width="90" height="30" as="alternateBounds" />
          </mxGeometry>
        </mxCell>
        <mxCell id="FrsXDeaIF_2unot50Wv9-144" value="id" style="shape=partialRectangle;connectable=0;fillColor=none;top=0;left=0;bottom=0;right=0;align=left;spacingLeft=6;fontStyle=5;overflow=hidden;whiteSpace=wrap;html=1;" vertex="1" parent="FrsXDeaIF_2unot50Wv9-142">
          <mxGeometry x="90" width="90" height="30" as="geometry">
            <mxRectangle width="90" height="30" as="alternateBounds" />
          </mxGeometry>
        </mxCell>
        <mxCell id="FrsXDeaIF_2unot50Wv9-145" value="" style="shape=tableRow;horizontal=0;startSize=0;swimlaneHead=0;swimlaneBody=0;fillColor=none;collapsible=0;dropTarget=0;points=[[0,0.5],[1,0.5]];portConstraint=eastwest;top=0;left=0;right=0;bottom=0;" vertex="1" parent="FrsXDeaIF_2unot50Wv9-141">
          <mxGeometry y="60" width="180" height="30" as="geometry" />
        </mxCell>
        <mxCell id="FrsXDeaIF_2unot50Wv9-146" value="CharField" style="shape=partialRectangle;connectable=0;fillColor=none;top=0;left=0;bottom=0;right=0;editable=1;overflow=hidden;whiteSpace=wrap;html=1;" vertex="1" parent="FrsXDeaIF_2unot50Wv9-145">
          <mxGeometry width="90" height="30" as="geometry">
            <mxRectangle width="90" height="30" as="alternateBounds" />
          </mxGeometry>
        </mxCell>
        <mxCell id="FrsXDeaIF_2unot50Wv9-147" value="firstName" style="shape=partialRectangle;connectable=0;fillColor=none;top=0;left=0;bottom=0;right=0;align=left;spacingLeft=6;overflow=hidden;whiteSpace=wrap;html=1;" vertex="1" parent="FrsXDeaIF_2unot50Wv9-145">
          <mxGeometry x="90" width="90" height="30" as="geometry">
            <mxRectangle width="90" height="30" as="alternateBounds" />
          </mxGeometry>
        </mxCell>
        <mxCell id="FrsXDeaIF_2unot50Wv9-148" value="" style="shape=tableRow;horizontal=0;startSize=0;swimlaneHead=0;swimlaneBody=0;fillColor=none;collapsible=0;dropTarget=0;points=[[0,0.5],[1,0.5]];portConstraint=eastwest;top=0;left=0;right=0;bottom=0;" vertex="1" parent="FrsXDeaIF_2unot50Wv9-141">
          <mxGeometry y="90" width="180" height="30" as="geometry" />
        </mxCell>
        <mxCell id="FrsXDeaIF_2unot50Wv9-149" value="CharField" style="shape=partialRectangle;connectable=0;fillColor=none;top=0;left=0;bottom=0;right=0;editable=1;overflow=hidden;whiteSpace=wrap;html=1;" vertex="1" parent="FrsXDeaIF_2unot50Wv9-148">
          <mxGeometry width="90" height="30" as="geometry">
            <mxRectangle width="90" height="30" as="alternateBounds" />
          </mxGeometry>
        </mxCell>
        <mxCell id="FrsXDeaIF_2unot50Wv9-150" value="surname" style="shape=partialRectangle;connectable=0;fillColor=none;top=0;left=0;bottom=0;right=0;align=left;spacingLeft=6;overflow=hidden;whiteSpace=wrap;html=1;" vertex="1" parent="FrsXDeaIF_2unot50Wv9-148">
          <mxGeometry x="90" width="90" height="30" as="geometry">
            <mxRectangle width="90" height="30" as="alternateBounds" />
          </mxGeometry>
        </mxCell>
        <mxCell id="FrsXDeaIF_2unot50Wv9-151" value="" style="shape=tableRow;horizontal=0;startSize=0;swimlaneHead=0;swimlaneBody=0;fillColor=none;collapsible=0;dropTarget=0;points=[[0,0.5],[1,0.5]];portConstraint=eastwest;top=0;left=0;right=0;bottom=0;" vertex="1" parent="FrsXDeaIF_2unot50Wv9-141">
          <mxGeometry y="120" width="180" height="30" as="geometry" />
        </mxCell>
        <mxCell id="FrsXDeaIF_2unot50Wv9-152" value="DateField" style="shape=partialRectangle;connectable=0;fillColor=none;top=0;left=0;bottom=0;right=0;editable=1;overflow=hidden;whiteSpace=wrap;html=1;" vertex="1" parent="FrsXDeaIF_2unot50Wv9-151">
          <mxGeometry width="90" height="30" as="geometry">
            <mxRectangle width="90" height="30" as="alternateBounds" />
          </mxGeometry>
        </mxCell>
        <mxCell id="FrsXDeaIF_2unot50Wv9-153" value="dateofbirth" style="shape=partialRectangle;connectable=0;fillColor=none;top=0;left=0;bottom=0;right=0;align=left;spacingLeft=6;overflow=hidden;whiteSpace=wrap;html=1;" vertex="1" parent="FrsXDeaIF_2unot50Wv9-151">
          <mxGeometry x="90" width="90" height="30" as="geometry">
            <mxRectangle width="90" height="30" as="alternateBounds" />
          </mxGeometry>
        </mxCell>
        <mxCell id="FrsXDeaIF_2unot50Wv9-167" style="shape=tableRow;horizontal=0;startSize=0;swimlaneHead=0;swimlaneBody=0;fillColor=none;collapsible=0;dropTarget=0;points=[[0,0.5],[1,0.5]];portConstraint=eastwest;top=0;left=0;right=0;bottom=0;" vertex="1" parent="FrsXDeaIF_2unot50Wv9-141">
          <mxGeometry y="150" width="180" height="30" as="geometry" />
        </mxCell>
        <mxCell id="FrsXDeaIF_2unot50Wv9-168" value="ChoiceField" style="shape=partialRectangle;connectable=0;fillColor=none;top=0;left=0;bottom=0;right=0;editable=1;overflow=hidden;whiteSpace=wrap;html=1;" vertex="1" parent="FrsXDeaIF_2unot50Wv9-167">
          <mxGeometry width="90" height="30" as="geometry">
            <mxRectangle width="90" height="30" as="alternateBounds" />
          </mxGeometry>
        </mxCell>
        <mxCell id="FrsXDeaIF_2unot50Wv9-169" value="permission" style="shape=partialRectangle;connectable=0;fillColor=none;top=0;left=0;bottom=0;right=0;align=left;spacingLeft=6;overflow=hidden;whiteSpace=wrap;html=1;" vertex="1" parent="FrsXDeaIF_2unot50Wv9-167">
          <mxGeometry x="90" width="90" height="30" as="geometry">
            <mxRectangle width="90" height="30" as="alternateBounds" />
          </mxGeometry>
        </mxCell>
        <mxCell id="FrsXDeaIF_2unot50Wv9-154" value="personParticipant" style="shape=table;startSize=30;container=1;collapsible=1;childLayout=tableLayout;fixedRows=1;rowLines=0;fontStyle=1;align=center;resizeLast=1;html=1;" vertex="1" parent="1">
          <mxGeometry x="-190" y="-70" width="180" height="150" as="geometry" />
        </mxCell>
        <mxCell id="FrsXDeaIF_2unot50Wv9-155" value="" style="shape=tableRow;horizontal=0;startSize=0;swimlaneHead=0;swimlaneBody=0;fillColor=none;collapsible=0;dropTarget=0;points=[[0,0.5],[1,0.5]];portConstraint=eastwest;top=0;left=0;right=0;bottom=1;" vertex="1" parent="FrsXDeaIF_2unot50Wv9-154">
          <mxGeometry y="30" width="180" height="30" as="geometry" />
        </mxCell>
        <mxCell id="FrsXDeaIF_2unot50Wv9-156" value="PK" style="shape=partialRectangle;connectable=0;fillColor=none;top=0;left=0;bottom=0;right=0;fontStyle=1;overflow=hidden;whiteSpace=wrap;html=1;" vertex="1" parent="FrsXDeaIF_2unot50Wv9-155">
          <mxGeometry width="89.99999999999955" height="30" as="geometry">
            <mxRectangle width="89.99999999999955" height="30" as="alternateBounds" />
          </mxGeometry>
        </mxCell>
        <mxCell id="FrsXDeaIF_2unot50Wv9-157" value="id" style="shape=partialRectangle;connectable=0;fillColor=none;top=0;left=0;bottom=0;right=0;align=left;spacingLeft=6;fontStyle=5;overflow=hidden;whiteSpace=wrap;html=1;" vertex="1" parent="FrsXDeaIF_2unot50Wv9-155">
          <mxGeometry x="89.99999999999955" width="90.00000000000045" height="30" as="geometry">
            <mxRectangle width="90.00000000000045" height="30" as="alternateBounds" />
          </mxGeometry>
        </mxCell>
        <mxCell id="FrsXDeaIF_2unot50Wv9-158" value="" style="shape=tableRow;horizontal=0;startSize=0;swimlaneHead=0;swimlaneBody=0;fillColor=none;collapsible=0;dropTarget=0;points=[[0,0.5],[1,0.5]];portConstraint=eastwest;top=0;left=0;right=0;bottom=0;" vertex="1" parent="FrsXDeaIF_2unot50Wv9-154">
          <mxGeometry y="60" width="180" height="30" as="geometry" />
        </mxCell>
        <mxCell id="FrsXDeaIF_2unot50Wv9-159" value="CharField" style="shape=partialRectangle;connectable=0;fillColor=none;top=0;left=0;bottom=0;right=0;editable=1;overflow=hidden;whiteSpace=wrap;html=1;" vertex="1" parent="FrsXDeaIF_2unot50Wv9-158">
          <mxGeometry width="89.99999999999955" height="30" as="geometry">
            <mxRectangle width="89.99999999999955" height="30" as="alternateBounds" />
          </mxGeometry>
        </mxCell>
        <mxCell id="FrsXDeaIF_2unot50Wv9-160" value="firstName" style="shape=partialRectangle;connectable=0;fillColor=none;top=0;left=0;bottom=0;right=0;align=left;spacingLeft=6;overflow=hidden;whiteSpace=wrap;html=1;" vertex="1" parent="FrsXDeaIF_2unot50Wv9-158">
          <mxGeometry x="89.99999999999955" width="90.00000000000045" height="30" as="geometry">
            <mxRectangle width="90.00000000000045" height="30" as="alternateBounds" />
          </mxGeometry>
        </mxCell>
        <mxCell id="FrsXDeaIF_2unot50Wv9-161" value="" style="shape=tableRow;horizontal=0;startSize=0;swimlaneHead=0;swimlaneBody=0;fillColor=none;collapsible=0;dropTarget=0;points=[[0,0.5],[1,0.5]];portConstraint=eastwest;top=0;left=0;right=0;bottom=0;" vertex="1" parent="FrsXDeaIF_2unot50Wv9-154">
          <mxGeometry y="90" width="180" height="30" as="geometry" />
        </mxCell>
        <mxCell id="FrsXDeaIF_2unot50Wv9-162" value="CharField" style="shape=partialRectangle;connectable=0;fillColor=none;top=0;left=0;bottom=0;right=0;editable=1;overflow=hidden;whiteSpace=wrap;html=1;" vertex="1" parent="FrsXDeaIF_2unot50Wv9-161">
          <mxGeometry width="89.99999999999955" height="30" as="geometry">
            <mxRectangle width="89.99999999999955" height="30" as="alternateBounds" />
          </mxGeometry>
        </mxCell>
        <mxCell id="FrsXDeaIF_2unot50Wv9-163" value="surname" style="shape=partialRectangle;connectable=0;fillColor=none;top=0;left=0;bottom=0;right=0;align=left;spacingLeft=6;overflow=hidden;whiteSpace=wrap;html=1;" vertex="1" parent="FrsXDeaIF_2unot50Wv9-161">
          <mxGeometry x="89.99999999999955" width="90.00000000000045" height="30" as="geometry">
            <mxRectangle width="90.00000000000045" height="30" as="alternateBounds" />
          </mxGeometry>
        </mxCell>
        <mxCell id="FrsXDeaIF_2unot50Wv9-164" value="" style="shape=tableRow;horizontal=0;startSize=0;swimlaneHead=0;swimlaneBody=0;fillColor=none;collapsible=0;dropTarget=0;points=[[0,0.5],[1,0.5]];portConstraint=eastwest;top=0;left=0;right=0;bottom=0;" vertex="1" parent="FrsXDeaIF_2unot50Wv9-154">
          <mxGeometry y="120" width="180" height="30" as="geometry" />
        </mxCell>
        <mxCell id="FrsXDeaIF_2unot50Wv9-165" value="DateField" style="shape=partialRectangle;connectable=0;fillColor=none;top=0;left=0;bottom=0;right=0;editable=1;overflow=hidden;whiteSpace=wrap;html=1;" vertex="1" parent="FrsXDeaIF_2unot50Wv9-164">
          <mxGeometry width="89.99999999999955" height="30" as="geometry">
            <mxRectangle width="89.99999999999955" height="30" as="alternateBounds" />
          </mxGeometry>
        </mxCell>
        <mxCell id="FrsXDeaIF_2unot50Wv9-166" value="dateofbirth" style="shape=partialRectangle;connectable=0;fillColor=none;top=0;left=0;bottom=0;right=0;align=left;spacingLeft=6;overflow=hidden;whiteSpace=wrap;html=1;" vertex="1" parent="FrsXDeaIF_2unot50Wv9-164">
          <mxGeometry x="89.99999999999955" width="90.00000000000045" height="30" as="geometry">
            <mxRectangle width="90.00000000000045" height="30" as="alternateBounds" />
          </mxGeometry>
        </mxCell>
        <mxCell id="FrsXDeaIF_2unot50Wv9-182" value="participantRoomAssign" style="shape=table;startSize=30;container=1;collapsible=1;childLayout=tableLayout;fixedRows=1;rowLines=0;fontStyle=1;align=center;resizeLast=1;html=1;whiteSpace=wrap;" vertex="1" parent="1">
          <mxGeometry x="-190" y="190" width="240" height="90" as="geometry" />
        </mxCell>
        <mxCell id="FrsXDeaIF_2unot50Wv9-183" value="" style="shape=tableRow;horizontal=0;startSize=0;swimlaneHead=0;swimlaneBody=0;fillColor=none;collapsible=0;dropTarget=0;points=[[0,0.5],[1,0.5]];portConstraint=eastwest;top=0;left=0;right=0;bottom=0;html=1;" vertex="1" parent="FrsXDeaIF_2unot50Wv9-182">
          <mxGeometry y="30" width="240" height="30" as="geometry" />
        </mxCell>
        <mxCell id="FrsXDeaIF_2unot50Wv9-184" value="PK,FK1" style="shape=partialRectangle;connectable=0;fillColor=none;top=0;left=0;bottom=0;right=0;fontStyle=1;overflow=hidden;html=1;whiteSpace=wrap;" vertex="1" parent="FrsXDeaIF_2unot50Wv9-183">
          <mxGeometry width="60" height="30" as="geometry">
            <mxRectangle width="60" height="30" as="alternateBounds" />
          </mxGeometry>
        </mxCell>
        <mxCell id="FrsXDeaIF_2unot50Wv9-185" value="&lt;div&gt;personParticipantId&lt;/div&gt;" style="shape=partialRectangle;connectable=0;fillColor=none;top=0;left=0;bottom=0;right=0;align=left;spacingLeft=6;fontStyle=5;overflow=hidden;html=1;whiteSpace=wrap;" vertex="1" parent="FrsXDeaIF_2unot50Wv9-183">
          <mxGeometry x="60" width="180" height="30" as="geometry">
            <mxRectangle width="180" height="30" as="alternateBounds" />
          </mxGeometry>
        </mxCell>
        <mxCell id="FrsXDeaIF_2unot50Wv9-186" value="" style="shape=tableRow;horizontal=0;startSize=0;swimlaneHead=0;swimlaneBody=0;fillColor=none;collapsible=0;dropTarget=0;points=[[0,0.5],[1,0.5]];portConstraint=eastwest;top=0;left=0;right=0;bottom=1;html=1;" vertex="1" parent="FrsXDeaIF_2unot50Wv9-182">
          <mxGeometry y="60" width="240" height="30" as="geometry" />
        </mxCell>
        <mxCell id="FrsXDeaIF_2unot50Wv9-187" value="PK,FK2" style="shape=partialRectangle;connectable=0;fillColor=none;top=0;left=0;bottom=0;right=0;fontStyle=1;overflow=hidden;html=1;whiteSpace=wrap;" vertex="1" parent="FrsXDeaIF_2unot50Wv9-186">
          <mxGeometry width="60" height="30" as="geometry">
            <mxRectangle width="60" height="30" as="alternateBounds" />
          </mxGeometry>
        </mxCell>
        <mxCell id="FrsXDeaIF_2unot50Wv9-188" value="participantAssignId" style="shape=partialRectangle;connectable=0;fillColor=none;top=0;left=0;bottom=0;right=0;align=left;spacingLeft=6;fontStyle=5;overflow=hidden;html=1;whiteSpace=wrap;" vertex="1" parent="FrsXDeaIF_2unot50Wv9-186">
          <mxGeometry x="60" width="180" height="30" as="geometry">
            <mxRectangle width="180" height="30" as="alternateBounds" />
          </mxGeometry>
        </mxCell>
        <mxCell id="FrsXDeaIF_2unot50Wv9-189" style="edgeStyle=orthogonalEdgeStyle;rounded=0;orthogonalLoop=1;jettySize=auto;html=1;startArrow=ERoneToMany;startFill=0;endArrow=ERmandOne;endFill=0;" edge="1" parent="1" source="FrsXDeaIF_2unot50Wv9-183" target="FrsXDeaIF_2unot50Wv9-155">
          <mxGeometry relative="1" as="geometry">
            <Array as="points">
              <mxPoint x="-210" y="235" />
              <mxPoint x="-210" y="-25" />
            </Array>
          </mxGeometry>
        </mxCell>
        <mxCell id="FrsXDeaIF_2unot50Wv9-190" style="edgeStyle=orthogonalEdgeStyle;rounded=0;orthogonalLoop=1;jettySize=auto;html=1;startArrow=ERoneToMany;startFill=0;endArrow=ERmandOne;endFill=0;" edge="1" parent="1" source="FrsXDeaIF_2unot50Wv9-129" target="FrsXDeaIF_2unot50Wv9-142">
          <mxGeometry relative="1" as="geometry">
            <Array as="points">
              <mxPoint x="-520" y="235" />
              <mxPoint x="-520" y="-25" />
            </Array>
          </mxGeometry>
        </mxCell>
        <mxCell id="FrsXDeaIF_2unot50Wv9-191" style="edgeStyle=orthogonalEdgeStyle;rounded=0;orthogonalLoop=1;jettySize=auto;html=1;startArrow=ERoneToMany;startFill=0;endArrow=ERmandOne;endFill=0;" edge="1" parent="1" source="FrsXDeaIF_2unot50Wv9-132" target="FrsXDeaIF_2unot50Wv9-122">
          <mxGeometry relative="1" as="geometry">
            <Array as="points">
              <mxPoint x="-520" y="265" />
              <mxPoint x="-520" y="395" />
            </Array>
          </mxGeometry>
        </mxCell>
        <mxCell id="FrsXDeaIF_2unot50Wv9-192" style="edgeStyle=orthogonalEdgeStyle;rounded=0;orthogonalLoop=1;jettySize=auto;html=1;endArrow=ERmandOne;endFill=0;startArrow=ERoneToMany;startFill=0;" edge="1" parent="1" source="FrsXDeaIF_2unot50Wv9-186" target="FrsXDeaIF_2unot50Wv9-125">
          <mxGeometry relative="1" as="geometry">
            <Array as="points">
              <mxPoint x="-210" y="265" />
              <mxPoint x="-210" y="425" />
            </Array>
          </mxGeometry>
        </mxCell>
        <mxCell id="FrsXDeaIF_2unot50Wv9-193" value="&lt;div&gt;&lt;font style=&quot;background-color: rgb(255, 255, 255);&quot; color=&quot;#00cc00&quot;&gt;PK, FK kombinacia v m:n tabulke vytvori funkcionality neopakujucih sa zaznamov?&lt;/font&gt;&lt;/div&gt;&lt;div&gt;&lt;font style=&quot;background-color: rgb(255, 255, 255);&quot; color=&quot;#00cc00&quot;&gt;áno&lt;br&gt;&lt;/font&gt;&lt;/div&gt;" style="text;html=1;align=center;verticalAlign=middle;whiteSpace=wrap;rounded=0;" vertex="1" parent="1">
          <mxGeometry x="-850" y="-10" width="220" height="70" as="geometry" />
        </mxCell>
        <mxCell id="FrsXDeaIF_2unot50Wv9-197" value="participantItems" style="shape=table;startSize=30;container=1;collapsible=1;childLayout=tableLayout;fixedRows=1;rowLines=0;fontStyle=1;align=center;resizeLast=1;html=1;whiteSpace=wrap;" vertex="1" parent="1">
          <mxGeometry x="-170" y="590" width="220" height="90" as="geometry" />
        </mxCell>
        <mxCell id="FrsXDeaIF_2unot50Wv9-198" value="" style="shape=tableRow;horizontal=0;startSize=0;swimlaneHead=0;swimlaneBody=0;fillColor=none;collapsible=0;dropTarget=0;points=[[0,0.5],[1,0.5]];portConstraint=eastwest;top=0;left=0;right=0;bottom=0;html=1;" vertex="1" parent="FrsXDeaIF_2unot50Wv9-197">
          <mxGeometry y="30" width="220" height="30" as="geometry" />
        </mxCell>
        <mxCell id="FrsXDeaIF_2unot50Wv9-199" value="PK,FK1" style="shape=partialRectangle;connectable=0;fillColor=none;top=0;left=0;bottom=0;right=0;fontStyle=1;overflow=hidden;html=1;whiteSpace=wrap;" vertex="1" parent="FrsXDeaIF_2unot50Wv9-198">
          <mxGeometry width="60" height="30" as="geometry">
            <mxRectangle width="60" height="30" as="alternateBounds" />
          </mxGeometry>
        </mxCell>
        <mxCell id="FrsXDeaIF_2unot50Wv9-200" value="&lt;div&gt;personParticipantId&lt;/div&gt;" style="shape=partialRectangle;connectable=0;fillColor=none;top=0;left=0;bottom=0;right=0;align=left;spacingLeft=6;fontStyle=5;overflow=hidden;html=1;whiteSpace=wrap;" vertex="1" parent="FrsXDeaIF_2unot50Wv9-198">
          <mxGeometry x="60" width="160" height="30" as="geometry">
            <mxRectangle width="160" height="30" as="alternateBounds" />
          </mxGeometry>
        </mxCell>
        <mxCell id="FrsXDeaIF_2unot50Wv9-201" value="" style="shape=tableRow;horizontal=0;startSize=0;swimlaneHead=0;swimlaneBody=0;fillColor=none;collapsible=0;dropTarget=0;points=[[0,0.5],[1,0.5]];portConstraint=eastwest;top=0;left=0;right=0;bottom=1;html=1;" vertex="1" parent="FrsXDeaIF_2unot50Wv9-197">
          <mxGeometry y="60" width="220" height="30" as="geometry" />
        </mxCell>
        <mxCell id="FrsXDeaIF_2unot50Wv9-202" value="PK,FK2" style="shape=partialRectangle;connectable=0;fillColor=none;top=0;left=0;bottom=0;right=0;fontStyle=1;overflow=hidden;html=1;whiteSpace=wrap;" vertex="1" parent="FrsXDeaIF_2unot50Wv9-201">
          <mxGeometry width="60" height="30" as="geometry">
            <mxRectangle width="60" height="30" as="alternateBounds" />
          </mxGeometry>
        </mxCell>
        <mxCell id="FrsXDeaIF_2unot50Wv9-203" value="menuItemsId" style="shape=partialRectangle;connectable=0;fillColor=none;top=0;left=0;bottom=0;right=0;align=left;spacingLeft=6;fontStyle=5;overflow=hidden;html=1;whiteSpace=wrap;" vertex="1" parent="FrsXDeaIF_2unot50Wv9-201">
          <mxGeometry x="60" width="160" height="30" as="geometry">
            <mxRectangle width="160" height="30" as="alternateBounds" />
          </mxGeometry>
        </mxCell>
        <mxCell id="FrsXDeaIF_2unot50Wv9-210" style="edgeStyle=orthogonalEdgeStyle;rounded=0;orthogonalLoop=1;jettySize=auto;html=1;startArrow=ERoneToMany;startFill=0;endArrow=ERmandOne;endFill=0;" edge="1" parent="1" source="FrsXDeaIF_2unot50Wv9-201" target="FrsXDeaIF_2unot50Wv9-99">
          <mxGeometry relative="1" as="geometry">
            <Array as="points">
              <mxPoint x="70" y="665" />
              <mxPoint x="70" y="1035" />
            </Array>
          </mxGeometry>
        </mxCell>
        <mxCell id="FrsXDeaIF_2unot50Wv9-211" style="edgeStyle=orthogonalEdgeStyle;rounded=0;orthogonalLoop=1;jettySize=auto;html=1;startArrow=ERoneToMany;startFill=0;endArrow=ERmandOne;endFill=0;" edge="1" parent="1" source="FrsXDeaIF_2unot50Wv9-198" target="FrsXDeaIF_2unot50Wv9-155">
          <mxGeometry relative="1" as="geometry">
            <Array as="points">
              <mxPoint x="70" y="635" />
              <mxPoint x="70" y="-25" />
            </Array>
          </mxGeometry>
        </mxCell>
        <mxCell id="FrsXDeaIF_2unot50Wv9-212" value="images" style="shape=table;startSize=30;container=1;collapsible=1;childLayout=tableLayout;fixedRows=1;rowLines=0;fontStyle=1;align=center;resizeLast=1;html=1;" vertex="1" parent="1">
          <mxGeometry x="-490" y="750" width="290" height="150" as="geometry" />
        </mxCell>
        <mxCell id="FrsXDeaIF_2unot50Wv9-213" value="" style="shape=tableRow;horizontal=0;startSize=0;swimlaneHead=0;swimlaneBody=0;fillColor=none;collapsible=0;dropTarget=0;points=[[0,0.5],[1,0.5]];portConstraint=eastwest;top=0;left=0;right=0;bottom=1;" vertex="1" parent="FrsXDeaIF_2unot50Wv9-212">
          <mxGeometry y="30" width="290" height="30" as="geometry" />
        </mxCell>
        <mxCell id="FrsXDeaIF_2unot50Wv9-214" value="PK" style="shape=partialRectangle;connectable=0;fillColor=none;top=0;left=0;bottom=0;right=0;fontStyle=1;overflow=hidden;whiteSpace=wrap;html=1;" vertex="1" parent="FrsXDeaIF_2unot50Wv9-213">
          <mxGeometry width="120" height="30" as="geometry">
            <mxRectangle width="120" height="30" as="alternateBounds" />
          </mxGeometry>
        </mxCell>
        <mxCell id="FrsXDeaIF_2unot50Wv9-215" value="id" style="shape=partialRectangle;connectable=0;fillColor=none;top=0;left=0;bottom=0;right=0;align=left;spacingLeft=6;fontStyle=5;overflow=hidden;whiteSpace=wrap;html=1;" vertex="1" parent="FrsXDeaIF_2unot50Wv9-213">
          <mxGeometry x="120" width="170" height="30" as="geometry">
            <mxRectangle width="170" height="30" as="alternateBounds" />
          </mxGeometry>
        </mxCell>
        <mxCell id="FrsXDeaIF_2unot50Wv9-216" value="" style="shape=tableRow;horizontal=0;startSize=0;swimlaneHead=0;swimlaneBody=0;fillColor=none;collapsible=0;dropTarget=0;points=[[0,0.5],[1,0.5]];portConstraint=eastwest;top=0;left=0;right=0;bottom=0;" vertex="1" parent="FrsXDeaIF_2unot50Wv9-212">
          <mxGeometry y="60" width="290" height="30" as="geometry" />
        </mxCell>
        <mxCell id="FrsXDeaIF_2unot50Wv9-217" value="ImageField" style="shape=partialRectangle;connectable=0;fillColor=none;top=0;left=0;bottom=0;right=0;editable=1;overflow=hidden;whiteSpace=wrap;html=1;" vertex="1" parent="FrsXDeaIF_2unot50Wv9-216">
          <mxGeometry width="120" height="30" as="geometry">
            <mxRectangle width="120" height="30" as="alternateBounds" />
          </mxGeometry>
        </mxCell>
        <mxCell id="FrsXDeaIF_2unot50Wv9-218" value="image" style="shape=partialRectangle;connectable=0;fillColor=none;top=0;left=0;bottom=0;right=0;align=left;spacingLeft=6;overflow=hidden;whiteSpace=wrap;html=1;" vertex="1" parent="FrsXDeaIF_2unot50Wv9-216">
          <mxGeometry x="120" width="170" height="30" as="geometry">
            <mxRectangle width="170" height="30" as="alternateBounds" />
          </mxGeometry>
        </mxCell>
        <mxCell id="FrsXDeaIF_2unot50Wv9-219" value="" style="shape=tableRow;horizontal=0;startSize=0;swimlaneHead=0;swimlaneBody=0;fillColor=none;collapsible=0;dropTarget=0;points=[[0,0.5],[1,0.5]];portConstraint=eastwest;top=0;left=0;right=0;bottom=0;" vertex="1" parent="FrsXDeaIF_2unot50Wv9-212">
          <mxGeometry y="90" width="290" height="30" as="geometry" />
        </mxCell>
        <mxCell id="FrsXDeaIF_2unot50Wv9-220" value="IntegerField" style="shape=partialRectangle;connectable=0;fillColor=none;top=0;left=0;bottom=0;right=0;editable=1;overflow=hidden;whiteSpace=wrap;html=1;" vertex="1" parent="FrsXDeaIF_2unot50Wv9-219">
          <mxGeometry width="120" height="30" as="geometry">
            <mxRectangle width="120" height="30" as="alternateBounds" />
          </mxGeometry>
        </mxCell>
        <mxCell id="FrsXDeaIF_2unot50Wv9-221" value="imageHeight" style="shape=partialRectangle;connectable=0;fillColor=none;top=0;left=0;bottom=0;right=0;align=left;spacingLeft=6;overflow=hidden;whiteSpace=wrap;html=1;" vertex="1" parent="FrsXDeaIF_2unot50Wv9-219">
          <mxGeometry x="120" width="170" height="30" as="geometry">
            <mxRectangle width="170" height="30" as="alternateBounds" />
          </mxGeometry>
        </mxCell>
        <mxCell id="FrsXDeaIF_2unot50Wv9-222" value="" style="shape=tableRow;horizontal=0;startSize=0;swimlaneHead=0;swimlaneBody=0;fillColor=none;collapsible=0;dropTarget=0;points=[[0,0.5],[1,0.5]];portConstraint=eastwest;top=0;left=0;right=0;bottom=0;" vertex="1" parent="FrsXDeaIF_2unot50Wv9-212">
          <mxGeometry y="120" width="290" height="30" as="geometry" />
        </mxCell>
        <mxCell id="FrsXDeaIF_2unot50Wv9-223" value="IntegerField" style="shape=partialRectangle;connectable=0;fillColor=none;top=0;left=0;bottom=0;right=0;editable=1;overflow=hidden;whiteSpace=wrap;html=1;" vertex="1" parent="FrsXDeaIF_2unot50Wv9-222">
          <mxGeometry width="120" height="30" as="geometry">
            <mxRectangle width="120" height="30" as="alternateBounds" />
          </mxGeometry>
        </mxCell>
        <mxCell id="FrsXDeaIF_2unot50Wv9-224" value="imageWidth" style="shape=partialRectangle;connectable=0;fillColor=none;top=0;left=0;bottom=0;right=0;align=left;spacingLeft=6;overflow=hidden;whiteSpace=wrap;html=1;" vertex="1" parent="FrsXDeaIF_2unot50Wv9-222">
          <mxGeometry x="120" width="170" height="30" as="geometry">
            <mxRectangle width="170" height="30" as="alternateBounds" />
          </mxGeometry>
        </mxCell>
        <mxCell id="FrsXDeaIF_2unot50Wv9-226" style="edgeStyle=orthogonalEdgeStyle;rounded=0;orthogonalLoop=1;jettySize=auto;html=1;startArrow=ERmandOne;startFill=0;endArrow=ERoneToMany;endFill=0;" edge="1" parent="1" source="FrsXDeaIF_2unot50Wv9-213" target="FrsXDeaIF_2unot50Wv9-119">
          <mxGeometry relative="1" as="geometry" />
        </mxCell>
      </root>
    </mxGraphModel>
  </diagram>
</mxfile>
